<svg width="24" height="24" viewBox="0 0 24 24" fill="none" xmlns="http://www.w3.org/2000/svg">
<path d="M16.7334 8.51623C16.8168 8.43555 16.8833 8.33904 16.929 8.23232C16.9748 8.12559 16.9989 8.01079 17 7.89462C17.001 7.77845 16.979 7.66322 16.9352 7.55568C16.8914 7.44813 16.8267 7.35041 16.7448 7.26822C16.663 7.18603 16.5656 7.12102 16.4585 7.07698C16.3513 7.03293 16.2364 7.01074 16.1206 7.0117C16.0048 7.01265 15.8904 7.03673 15.7839 7.08254C15.6775 7.12834 15.5812 7.19495 15.5007 7.27847L12.0049 10.7841L8.51031 7.27847C8.43047 7.19251 8.33417 7.12356 8.22718 7.07574C8.1202 7.02792 8.0047 7.00221 7.88759 7.00014C7.77048 6.99806 7.65415 7.01967 7.54555 7.06368C7.43694 7.10768 7.33829 7.17318 7.25546 7.25626C7.17264 7.33935 7.10735 7.43831 7.06348 7.54726C7.01961 7.6562 6.99807 7.7729 7.00014 7.89038C7.0022 8.00786 7.02784 8.12371 7.07551 8.23104C7.12318 8.33836 7.19191 8.43496 7.2776 8.51506L10.7699 12.0218L7.27528 15.5274C7.12121 15.6933 7.03734 15.9127 7.04132 16.1393C7.04531 16.366 7.13685 16.5823 7.29665 16.7426C7.45645 16.9029 7.67204 16.9947 7.898 16.9987C8.12396 17.0027 8.34265 16.9186 8.50799 16.764L12.0049 13.2584L15.4996 16.7652C15.6649 16.9197 15.8836 17.0039 16.1095 16.9999C16.3355 16.9959 16.5511 16.904 16.7109 16.7437C16.8707 16.5834 16.9622 16.3672 16.9662 16.1405C16.9702 15.9138 16.8863 15.6944 16.7323 15.5286L13.24 12.0218L16.7334 8.51623Z" fill="white"/>
</svg>
