<svg width="32" height="32" viewBox="0 0 32 32" fill="none" xmlns="http://www.w3.org/2000/svg">
<rect x="0.5" y="0.5" width="31" height="31" rx="15.5" stroke="#9DF9E3"/>
<path d="M21 11.4286C21 11.8667 20.961 12.2476 20.8831 12.5714C20.961 12.8762 21 13.2571 21 13.7143C21 14.1524 20.961 14.5333 20.8831 14.8571H19.4221C19.5 15.1619 19.539 15.5429 19.539 16C19.539 16.4381 19.5 16.819 19.4221 17.1429H17.961C18.039 17.4476 18.0779 17.8286 18.0779 18.2857C18.0779 18.7238 18.039 19.1048 17.961 19.4286H15.6234C15.5455 19.1048 15.5065 18.7238 15.5065 18.2857C15.5065 17.8286 15.5455 17.4476 15.6234 17.1429H17.0844C17.0065 16.819 16.9675 16.4381 16.9675 16C16.9675 15.5429 17.0065 15.1619 17.0844 14.8571H18.5455C18.4675 14.5333 18.4286 14.1524 18.4286 13.7143C18.4286 13.2571 18.4675 12.8762 18.5455 12.5714C18.4675 12.2476 18.4286 11.8667 18.4286 11.4286C18.4286 10.9714 18.4675 10.5905 18.5455 10.2857H14.4545C14.5325 10.5905 14.5714 10.9714 14.5714 11.4286C14.5714 11.8667 14.5325 12.2476 14.4545 12.5714H12.1169C12.039 12.2476 12 11.8667 12 11.4286C12 10.9714 12.039 10.5905 12.1169 10.2857H13.8701C13.7922 9.9619 13.7532 9.58095 13.7532 9.14286C13.7532 8.68571 13.7922 8.30476 13.8701 8H19.7143C19.7922 8.30476 19.8312 8.68571 19.8312 9.14286C19.8312 9.58095 19.7922 9.9619 19.7143 10.2857H20.8831C20.961 10.5905 21 10.9714 21 11.4286ZM17.961 21.7143C18.039 22.019 18.0779 22.4 18.0779 22.8571C18.0779 23.2952 18.039 23.6762 17.961 24H15.6234C15.5455 23.6762 15.5065 23.2952 15.5065 22.8571C15.5065 22.4 15.5455 22.019 15.6234 21.7143H17.961Z" fill="#9DF9E3"/>
</svg>
