<svg width="32" height="32" viewBox="0 0 32 32" fill="none" xmlns="http://www.w3.org/2000/svg">
<rect x="0.5" y="0.5" width="31" height="31" rx="15.5" stroke="#9DF9E3"/>
<path d="M15.0323 10.8571C14.9677 10.594 14.9355 10.2845 14.9355 9.92857C14.9355 9.55714 14.9677 9.24762 15.0323 9H16.9677C17.0323 9.24762 17.0645 9.55714 17.0645 9.92857C17.0645 10.2845 17.0323 10.594 16.9677 10.8571H15.0323ZM18.9032 20.1429C18.9677 20.3905 19 20.7 19 21.0714C19 21.4274 18.9677 21.7369 18.9032 22H13.0968C13.0323 21.7369 13 21.4274 13 21.0714C13 20.7 13.0323 20.3905 13.0968 20.1429H15.0323C14.9677 19.8798 14.9355 19.5702 14.9355 19.2143C14.9355 18.8429 14.9677 18.5333 15.0323 18.2857C14.9677 18.0226 14.9355 17.7131 14.9355 17.3571C14.9355 16.9857 14.9677 16.6762 15.0323 16.4286C14.9677 16.1655 14.9355 15.856 14.9355 15.5C14.9355 15.1286 14.9677 14.819 15.0323 14.5714H13.5806C13.5161 14.3083 13.4839 13.9988 13.4839 13.6429C13.4839 13.2714 13.5161 12.9619 13.5806 12.7143H16.9677C17.0323 12.9619 17.0645 13.2714 17.0645 13.6429C17.0645 13.9988 17.0323 14.3083 16.9677 14.5714C17.0323 14.819 17.0645 15.1286 17.0645 15.5C17.0645 15.856 17.0323 16.1655 16.9677 16.4286C17.0323 16.6762 17.0645 16.9857 17.0645 17.3571C17.0645 17.7131 17.0323 18.0226 16.9677 18.2857C17.0323 18.5333 17.0645 18.8429 17.0645 19.2143C17.0645 19.5702 17.0323 19.8798 16.9677 20.1429H18.9032Z" fill="#9DF9E3"/>
</svg>
