<svg width="24" height="24" viewBox="0 0 24 24" fill="none" xmlns="http://www.w3.org/2000/svg">
<path d="M15.1591 8.22065C15.1134 8.32737 15.0469 8.42389 14.9635 8.50456L12.1733 11.3045C11.7845 11.6947 11.7844 12.3258 12.173 12.716L14.9624 15.5169C15.1164 15.6828 15.2003 15.9022 15.1963 16.1288C15.1923 16.3555 15.1008 16.5718 14.941 16.7321C14.7812 16.8924 14.5656 16.9842 14.3396 16.9882C14.1137 16.9922 13.895 16.9081 13.7297 16.7535L10.235 13.2467L9.70545 12.7165C9.31564 12.3262 9.31549 11.694 9.70511 11.3035L10.235 10.7724L13.7308 7.26681C13.8113 7.18328 13.9076 7.11667 14.014 7.07087C14.1205 7.02507 14.2349 7.00098 14.3507 7.00003C14.4665 6.99908 14.5814 7.02127 14.6886 7.06531C14.7957 7.10935 14.8931 7.17437 14.9749 7.25656C15.0568 7.33874 15.1215 7.43646 15.1653 7.54401C15.2091 7.65156 15.2311 7.76678 15.2301 7.88295C15.229 7.99913 15.2049 8.11393 15.1591 8.22065Z" fill="white"/>
</svg>
